<?xml version="1.0" encoding="utf-8"?>
<!-- Generator: Adobe Illustrator 19.0.0, SVG Export Plug-In . SVG Version: 6.00 Build 0)  -->
<svg version="1.1" id="Camada_1" xmlns="http://www.w3.org/2000/svg" xmlns:xlink="http://www.w3.org/1999/xlink" x="0px" y="0px"
	 viewBox="0 0 218.9 183.6" style="enable-background:new 0 0 218.9 183.6;" xml:space="preserve">
<style type="text/css">
	.st0{fill:#FFFFFF;}
	.st1{fill-rule:evenodd;clip-rule:evenodd;fill:#FFFFFF;}
</style>
<g id="XMLID_1_">
	<g id="XMLID_102_">
		<path id="XMLID_110_" class="st0" d="M17.6,103.3c0-2.5,0.8-4.6,2.6-6.3c1.7-1.7,3.9-2.6,6.7-2.6s5,0.9,6.7,2.6
			c1.7,1.7,2.6,3.8,2.6,6.3c0,2.5-0.9,4.7-2.6,6.4c-1.7,1.7-3.9,2.6-6.7,2.6s-5-0.9-6.7-2.6C18.4,107.9,17.6,105.8,17.6,103.3z
			 M35,170.3c-0.7,0.2-1.7,0.4-3,0.6c-1.3,0.2-2.7,0.3-4.3,0.3c-3.3,0-5.6-0.5-7-1.6c-1.4-1-2.1-3.1-2.1-6.1v-44.6
			c0.7-0.2,1.7-0.4,3-0.7c1.3-0.2,2.7-0.3,4.3-0.3c3.3,0,5.6,0.5,7,1.6c1.4,1.1,2.1,3.1,2.1,6.2V170.3z"/>
		<path id="XMLID_107_" class="st0" d="M74.4,116.6c3.5,0,6.9,0.6,10,1.7c3.1,1.2,5.8,2.9,8.1,5.2c2.3,2.3,4.1,5.2,5.4,8.6
			c1.3,3.4,2,7.4,2,12c0,4.6-0.7,8.6-2.1,12c-1.4,3.5-3.3,6.4-5.8,8.7c-2.5,2.4-5.5,4.1-9,5.3c-3.5,1.2-7.4,1.8-11.8,1.8
			c-4.6,0-8.5-0.5-11.7-1.6c-3.3-1.1-6-2.4-8.1-3.9c-3.1-2.1-4.7-4.8-4.7-8.2V99.8c0.8-0.2,1.8-0.4,3.1-0.7c1.3-0.2,2.7-0.3,4.3-0.3
			c3.3,0,5.6,0.5,7,1.6c1.4,1.1,2.1,3.1,2.1,6.2V119c1.4-0.7,3.1-1.2,5-1.7C70.1,116.8,72.2,116.6,74.4,116.6z M71.4,129.6
			c-1.7,0-3.2,0.2-4.5,0.7c-1.3,0.5-2.6,1.1-3.7,1.8V157c0.9,0.6,2,1,3.3,1.4c1.3,0.4,2.8,0.5,4.6,0.5c3.6,0,6.5-1.2,8.6-3.7
			c2.1-2.5,3.2-6.1,3.2-11.1c0-5.1-1-8.8-3.1-11.1C77.6,130.8,74.9,129.6,71.4,129.6z"/>
		<path id="XMLID_105_" class="st0" d="M136.8,129.7c-3.9,0-7.2,1.2-10,3.7c-2.8,2.5-4.1,6.2-4.1,11c0,4.8,1.3,8.5,4,10.9
			c2.6,2.4,6,3.6,10,3.6c2.3,0,4.4-0.3,6.1-0.9c1.8-0.6,3.3-1.2,4.5-1.9c1.2,0.9,2.2,1.9,2.9,3c0.7,1,1,2.3,1,3.9
			c0,2.8-1.4,5-4.3,6.6c-2.9,1.7-6.9,2.5-12,2.5c-4.3,0-8.3-0.6-11.9-1.7c-3.6-1.2-6.6-2.9-9.2-5.2c-2.5-2.3-4.5-5.2-5.9-8.6
			c-1.4-3.4-2.1-7.4-2.1-12c0-4.7,0.8-8.8,2.3-12.3c1.5-3.5,3.6-6.4,6.2-8.7c2.6-2.3,5.6-4.1,9.1-5.2c3.5-1.2,7.1-1.7,11-1.7
			c5,0,8.9,0.9,11.8,2.7c2.9,1.8,4.3,4.1,4.3,6.8c0,1.3-0.3,2.5-0.9,3.6c-0.6,1.1-1.4,2-2.2,2.8c-1.3-0.7-2.8-1.4-4.6-2
			C141,130,139,129.7,136.8,129.7z"/>
		<path id="XMLID_103_" class="st0" d="M186.9,129.7c-3.9,0-7.2,1.2-10,3.7c-2.8,2.5-4.1,6.2-4.1,11c0,4.8,1.3,8.5,4,10.9
			c2.6,2.4,6,3.6,10,3.6c2.3,0,4.4-0.3,6.1-0.9c1.8-0.6,3.3-1.2,4.5-1.9c1.2,0.9,2.2,1.9,2.9,3c0.7,1,1,2.3,1,3.9
			c0,2.8-1.4,5-4.3,6.6c-2.9,1.7-6.9,2.5-12,2.5c-4.3,0-8.3-0.6-11.9-1.7c-3.6-1.2-6.6-2.9-9.2-5.2c-2.5-2.3-4.5-5.2-5.9-8.6
			c-1.4-3.4-2.1-7.4-2.1-12c0-4.7,0.8-8.8,2.3-12.3c1.5-3.5,3.6-6.4,6.2-8.7c2.6-2.3,5.6-4.1,9.1-5.2c3.5-1.2,7.1-1.7,11-1.7
			c5,0,8.9,0.9,11.8,2.7c2.9,1.8,4.3,4.1,4.3,6.8c0,1.3-0.3,2.5-0.9,3.6c-0.6,1.1-1.4,2-2.2,2.8c-1.3-0.7-2.8-1.4-4.6-2
			C191,130,189,129.7,186.9,129.7z"/>
	</g>
	<path id="XMLID_57_" class="st1" d="M118.9,71.5c3.6,7.9,5.5,15.8,5.1,26.1c-4.8-0.3-9.6-1.7-13.4-3.5c-3.4-1.7-8.4-4.8-10.2-6.9
		c-0.8-0.7-1.3-1.3-2.2-2.2C89.9,76.6,86,62.4,88,50.7c9.7-0.6,21.3,8.5,27.3,15.4c0.2,0.2,0.9,1.3,1.2,1.8
		C117.4,69.2,118.2,70.4,118.9,71.5 M138.3,71.5c-3.6,7.9-5.5,15.8-5.1,26.1c4.8-0.3,9.6-1.7,13.4-3.5c3.4-1.7,8.4-4.8,10.2-6.9
		c0.8-0.7,1.3-1.3,2.2-2.2c8.4-8.5,12.2-22.6,10.2-34.4c-9.7-0.6-21.3,8.5-27.3,15.4c-0.2,0.2-0.9,1.3-1.2,1.8
		C139.8,69.2,139,70.4,138.3,71.5z M171.9,29.9c2.2,0,4,1.9,4,4.2c0,2.3-1.8,4.2-4,4.2c-2.2,0-4-1.9-4-4.2
		C167.8,31.8,169.6,29.9,171.9,29.9z M85.6,29.6c2.4,0,4.3,2,4.3,4.5c0,2.5-1.9,4.5-4.3,4.5c-2.4,0-4.3-2-4.3-4.5
		C81.3,31.6,83.2,29.6,85.6,29.6z M128.6,78.2L128.6,78.2L128.6,78.2z M131.3,104.9c-0.9,0-1.8,0-2.7,0c-0.9,0-1.8,0-2.7,0l0-0.1
		c-34.1-2-49.5-28.6-43.2-62.5c15.5,1.6,31.7,9.2,40.1,21.5V32.3h-14.1c-0.7,0-1.2-0.5-1.2-1.2v-6.1c0-0.7,0.5-1.2,1.2-1.2h14.1
		v-9.7c0-1.4,1.2-2.6,2.6-2.6h6.4c1.4,0,2.6,1.2,2.6,2.6v9.7h14.1c0.7,0,1.2,0.5,1.2,1.2v6.1c0,0.7-0.5,1.2-1.2,1.2h-14.1v31.5
		c8.4-12.2,24.6-19.9,40.1-21.5c6.3,33.9-9.1,60.5-43.2,62.5L131.3,104.9z"/>
</g>
</svg>
