<?xml version="1.0" encoding="utf-8"?>
<!-- Generator: Adobe Illustrator 19.0.0, SVG Export Plug-In . SVG Version: 6.00 Build 0)  -->
<svg version="1.1" id="Camada_1" xmlns="http://www.w3.org/2000/svg" xmlns:xlink="http://www.w3.org/1999/xlink" x="0px" y="0px"
	 viewBox="0 0 100 100" style="enable-background:new 0 0 100 100;" xml:space="preserve">
<style type="text/css">
	
		.st0{fill-rule:evenodd;clip-rule:evenodd;fill:#FFFFFF;stroke:#FFFFFF;stroke-linecap:round;stroke-linejoin:round;stroke-miterlimit:10;}
</style>
<g id="XMLID_28_">
	<path id="XMLID_34_" class="st0" d="M50.9,4.6C26.7,4.6,7,24.3,7,48.5c0,8.3,2.3,16,6.3,22.6L5.4,94.6l24.3-7.8
		c6.3,3.5,13.5,5.5,21.2,5.5c24.2,0,43.8-19.6,43.8-43.8C94.7,24.3,75.1,4.6,50.9,4.6z M50.9,85c-7.4,0-14.3-2.2-20.1-6l-14,4.5
		l4.6-13.6c-4.4-6-7-13.4-7-21.4C14.4,28.3,30.7,12,50.9,12C71,12,87.4,28.3,87.4,48.5C87.4,68.6,71,85,50.9,85z"/>
	<path id="XMLID_27_" class="st0" d="M71.4,58.4c-1.1-0.6-6.5-3.5-7.5-3.9c-1-0.4-1.8-0.6-2.5,0.5c-0.8,1.1-3,3.5-3.7,4.3
		C57,60,56.3,60,55.2,59.4c-1.1-0.6-4.7-1.9-8.8-5.9c-3.2-3.1-5.3-6.8-5.9-8c-0.6-1.1,0-1.7,0.6-2.3c0.5-0.5,1.2-1.3,1.8-1.9
		c0.6-0.6,0.8-1.1,1.2-1.8c0.4-0.7,0.2-1.4,0-2c-0.3-0.6-2.3-6.2-3.1-8.4c-0.9-2.3-1.8-1.9-2.4-2c-0.7,0-1.4-0.1-2.1-0.2
		c-0.8,0-2,0.2-3,1.3c-1.1,1.1-4.1,3.7-4.3,9.2c-0.2,5.5,3.6,11,4.1,11.7c0.5,0.8,7.3,12.7,18.5,17.6c11.2,4.9,11.3,3.4,13.3,3.3
		c2.1-0.1,6.7-2.5,7.8-5c1-2.6,1.1-4.8,0.9-5.3C73.3,59.3,72.5,59,71.4,58.4L71.4,58.4z"/>
</g>
</svg>
