<?xml version="1.0" encoding="utf-8"?>
<!-- Generator: Adobe Illustrator 19.0.0, SVG Export Plug-In . SVG Version: 6.00 Build 0)  -->
<svg version="1.1" id="Camada_1" xmlns="http://www.w3.org/2000/svg" xmlns:xlink="http://www.w3.org/1999/xlink" x="0px" y="0px"
	 viewBox="0 0 100 100" style="enable-background:new 0 0 100 100;" xml:space="preserve">
<style type="text/css">
	.st0{fill:#FFFFFF;stroke:#FFFFFF;stroke-miterlimit:10;}
</style>
<path id="XMLID_32_" class="st0" d="M49.5,4.9C31.3,4.9,16.6,19.7,16.6,38c0,25.8,25.8,50.9,31.7,56.4c0.7,0.6,1.7,0.6,2.4,0
	c6-5.5,31.7-30.6,31.7-56.4C82.5,19.7,67.7,4.9,49.5,4.9z M49.5,55.1c-9.4,0-17-7.6-17-17c0-9.4,7.6-17,17-17c9.4,0,17,7.6,17,17
	C66.5,47.5,58.9,55.1,49.5,55.1z"/>
</svg>
